<svg xmlns="http://www.w3.org/2000/svg" version="1.1" xmlns:xlink="http://www.w3.org/1999/xlink" xmlns:svgjs="http://svgjs.dev/svgjs" width="1440" height="1440" preserveAspectRatio="none" viewBox="0 0 1440 1440"><g mask="url(&quot;#SvgjsMask1216&quot;)" fill="none"><rect width="1440" height="1440" x="0" y="0" fill="url(&quot;#SvgjsLinearGradient1217&quot;)"></rect><path d="M1440 0L1239.77 0L1440 327.88z" fill="rgba(255, 255, 255, .1)"></path><path d="M1239.77 0L1440 327.88L1440 575.02L778.96 0z" fill="rgba(255, 255, 255, .075)"></path><path d="M778.96 0L1440 575.02L1440 690.5899999999999L343.74 0z" fill="rgba(255, 255, 255, .05)"></path><path d="M343.74 0L1440 690.5899999999999L1440 1030.4199999999998L290.7 0z" fill="rgba(255, 255, 255, .025)"></path><path d="M0 1440L296.51 1440L0 1233.72z" fill="rgba(0, 0, 0, .1)"></path><path d="M0 1233.72L296.51 1440L550.78 1440L0 694.4z" fill="rgba(0, 0, 0, .075)"></path><path d="M0 694.4L550.78 1440L775.1899999999999 1440L0 430.65z" fill="rgba(0, 0, 0, .05)"></path><path d="M0 430.65L775.1899999999999 1440L1069.73 1440L0 410.78z" fill="rgba(0, 0, 0, .025)"></path></g><defs><mask id="SvgjsMask1216"><rect width="1440" height="1440" fill="#ffffff"></rect></mask><linearGradient x1="0%" y1="100%" x2="100%" y2="0%" gradientUnits="userSpaceOnUse" id="SvgjsLinearGradient1217"><stop stop-color="#0e2a47" offset="0"></stop><stop stop-color="rgba(21, 32, 48, 1)" offset="1"></stop></linearGradient></defs></svg>